<?xml version="1.0" standalone="no"?>
<!DOCTYPE svg PUBLIC "-//W3C//DTD SVG 20010904//EN"
 "http://www.w3.org/TR/2001/REC-SVG-20010904/DTD/svg10.dtd">
<svg version="1.0" xmlns="http://www.w3.org/2000/svg"
 width="320.000000pt" height="320.000000pt" viewBox="0 0 320.000000 320.000000"
 preserveAspectRatio="xMidYMid meet">
<metadata>
Created by potrace 1.11, written by Peter Selinger 2001-2013
</metadata>
<g transform="translate(0.000000,320.000000) scale(0.100000,-0.100000)"
fill="#000000" stroke="none">
<path d="M0 1600 l0 -1600 1600 0 1600 0 0 1600 0 1600 -1600 0 -1600 0 0
-1600z m2683 1441 c21 -13 50 -42 65 -64 l27 -41 0 -321 0 -321 -27 -41 c-15
-22 -44 -51 -65 -64 l-38 -24 -532 -3 -533 -3 0 -39 0 -39 488 -3 487 -3 38
-24 c21 -13 50 -42 65 -64 l27 -41 0 -320 c0 -320 0 -321 -24 -359 -13 -21
-42 -50 -64 -65 l-41 -27 -487 -3 -488 -3 -3 -492 -3 -492 -24 -38 c-13 -21
-42 -50 -64 -65 l-41 -27 -406 0 -406 0 -41 27 c-22 15 -51 44 -64 65 l-24 38
-3 1353 c-1 936 1 1366 8 1393 13 48 76 115 122 128 20 6 416 9 1023 8 l990
-2 38 -24z"/>
<path d="M700 1560 l0 -1310 340 0 340 0 0 560 0 560 555 0 555 0 0 255 0 255
-555 0 -555 0 0 240 0 240 600 0 600 0 0 255 0 255 -940 0 -940 0 0 -1310z"/>
</g>
</svg>
